<mxfile host="65bd71144e" modified="2021-02-05T04:33:37.671Z" agent="5.0 (Windows NT 10.0; Win64; x64) AppleWebKit/537.36 (KHTML, like Gecko) Code/1.52.1 Chrome/83.0.4103.122 Electron/9.3.5 Safari/537.36" etag="ShL8hah3gO4kgLXVC1hB" version="13.10.0" type="embed">
    <diagram id="XmHj-8Q3bHNfrg04JaTJ" name="Page-1">
        <mxGraphModel dx="1060" dy="480" grid="1" gridSize="10" guides="1" tooltips="1" connect="1" arrows="1" fold="1" page="1" pageScale="1" pageWidth="850" pageHeight="1100" math="0" shadow="0">
            <root>
                <mxCell id="0"/>
                <mxCell id="1" parent="0"/>
                <mxCell id="SeQQwZ_gMkMX03fLQ0as-1" value="player" style="ellipse;whiteSpace=wrap;html=1;" parent="1" vertex="1">
                    <mxGeometry x="160" y="180" width="80" height="80" as="geometry"/>
                </mxCell>
                <mxCell id="SeQQwZ_gMkMX03fLQ0as-2" value="song start" style="ellipse;whiteSpace=wrap;html=1;aspect=fixed;" parent="1" vertex="1">
                    <mxGeometry x="400" y="170" width="80" height="80" as="geometry"/>
                </mxCell>
                <mxCell id="SeQQwZ_gMkMX03fLQ0as-3" value="state changed" style="ellipse;whiteSpace=wrap;html=1;aspect=fixed;" parent="1" vertex="1">
                    <mxGeometry x="280" y="370" width="80" height="80" as="geometry"/>
                </mxCell>
                <object label="" id="SeQQwZ_gMkMX03fLQ0as-5">
                    <mxCell style="endArrow=classic;html=1;" parent="1" source="SeQQwZ_gMkMX03fLQ0as-1" target="SeQQwZ_gMkMX03fLQ0as-3" edge="1">
                        <mxGeometry width="50" height="50" relative="1" as="geometry">
                            <mxPoint x="400" y="440" as="sourcePoint"/>
                            <mxPoint x="450" y="390" as="targetPoint"/>
                        </mxGeometry>
                    </mxCell>
                </object>
                <mxCell id="SeQQwZ_gMkMX03fLQ0as-6" value="state changed" style="text;html=1;strokeColor=none;fillColor=none;align=center;verticalAlign=middle;whiteSpace=wrap;rounded=0;" parent="1" vertex="1">
                    <mxGeometry x="240" y="300" width="40" height="20" as="geometry"/>
                </mxCell>
                <mxCell id="SeQQwZ_gMkMX03fLQ0as-7" value="" style="endArrow=classic;html=1;exitX=0.975;exitY=0.188;exitDx=0;exitDy=0;exitPerimeter=0;entryX=0.425;entryY=1.025;entryDx=0;entryDy=0;entryPerimeter=0;" parent="1" source="SeQQwZ_gMkMX03fLQ0as-3" target="SeQQwZ_gMkMX03fLQ0as-2" edge="1">
                    <mxGeometry width="50" height="50" relative="1" as="geometry">
                        <mxPoint x="400" y="430" as="sourcePoint"/>
                        <mxPoint x="450" y="380" as="targetPoint"/>
                    </mxGeometry>
                </mxCell>
                <mxCell id="SeQQwZ_gMkMX03fLQ0as-8" value="schedule next" style="text;html=1;strokeColor=none;fillColor=none;align=center;verticalAlign=middle;whiteSpace=wrap;rounded=0;" parent="1" vertex="1">
                    <mxGeometry x="340" y="330" width="110" height="20" as="geometry"/>
                </mxCell>
                <mxCell id="SeQQwZ_gMkMX03fLQ0as-9" value="" style="endArrow=classic;html=1;exitX=0;exitY=0.588;exitDx=0;exitDy=0;exitPerimeter=0;entryX=1;entryY=0.5;entryDx=0;entryDy=0;" parent="1" source="SeQQwZ_gMkMX03fLQ0as-2" target="SeQQwZ_gMkMX03fLQ0as-1" edge="1">
                    <mxGeometry width="50" height="50" relative="1" as="geometry">
                        <mxPoint x="400" y="410" as="sourcePoint"/>
                        <mxPoint x="450" y="360" as="targetPoint"/>
                    </mxGeometry>
                </mxCell>
                <mxCell id="SeQQwZ_gMkMX03fLQ0as-10" value="set uri&lt;br&gt;play" style="text;html=1;align=center;verticalAlign=middle;resizable=0;points=[];autosize=1;" parent="1" vertex="1">
                    <mxGeometry x="295" y="185" width="50" height="30" as="geometry"/>
                </mxCell>
                <mxCell id="SeQQwZ_gMkMX03fLQ0as-11" value="queue" style="ellipse;whiteSpace=wrap;html=1;aspect=fixed;" parent="1" vertex="1">
                    <mxGeometry x="290" y="30" width="80" height="80" as="geometry"/>
                </mxCell>
                <mxCell id="SeQQwZ_gMkMX03fLQ0as-13" value="" style="curved=1;endArrow=classic;html=1;exitX=0;exitY=0.5;exitDx=0;exitDy=0;entryX=0.25;entryY=0;entryDx=0;entryDy=0;entryPerimeter=0;" parent="1" source="SeQQwZ_gMkMX03fLQ0as-1" target="SeQQwZ_gMkMX03fLQ0as-1" edge="1">
                    <mxGeometry width="50" height="50" relative="1" as="geometry">
                        <mxPoint x="90" y="200" as="sourcePoint"/>
                        <mxPoint x="140" y="150" as="targetPoint"/>
                        <Array as="points">
                            <mxPoint x="140" y="200"/>
                            <mxPoint x="90" y="150"/>
                        </Array>
                    </mxGeometry>
                </mxCell>
                <mxCell id="SeQQwZ_gMkMX03fLQ0as-14" value="play if first" style="text;html=1;align=center;verticalAlign=middle;resizable=0;points=[];autosize=1;" parent="1" vertex="1">
                    <mxGeometry x="55" y="150" width="70" height="20" as="geometry"/>
                </mxCell>
                <mxCell id="SeQQwZ_gMkMX03fLQ0as-15" value="" style="endArrow=classic;html=1;exitX=0;exitY=0.5;exitDx=0;exitDy=0;entryX=0.688;entryY=0.025;entryDx=0;entryDy=0;entryPerimeter=0;" parent="1" source="SeQQwZ_gMkMX03fLQ0as-11" target="SeQQwZ_gMkMX03fLQ0as-1" edge="1">
                    <mxGeometry width="50" height="50" relative="1" as="geometry">
                        <mxPoint x="190" y="80" as="sourcePoint"/>
                        <mxPoint x="240" y="30" as="targetPoint"/>
                    </mxGeometry>
                </mxCell>
                <mxCell id="SeQQwZ_gMkMX03fLQ0as-16" value="set uri" style="text;html=1;align=center;verticalAlign=middle;resizable=0;points=[];autosize=1;" parent="1" vertex="1">
                    <mxGeometry x="235" y="90" width="50" height="20" as="geometry"/>
                </mxCell>
                <mxCell id="SeQQwZ_gMkMX03fLQ0as-17" value="" style="endArrow=classic;html=1;exitX=1;exitY=0.5;exitDx=0;exitDy=0;entryX=0.3;entryY=0.025;entryDx=0;entryDy=0;entryPerimeter=0;" parent="1" source="SeQQwZ_gMkMX03fLQ0as-11" target="SeQQwZ_gMkMX03fLQ0as-2" edge="1">
                    <mxGeometry width="50" height="50" relative="1" as="geometry">
                        <mxPoint x="420" y="100" as="sourcePoint"/>
                        <mxPoint x="470" y="50" as="targetPoint"/>
                    </mxGeometry>
                </mxCell>
                <mxCell id="SeQQwZ_gMkMX03fLQ0as-18" value="set next" style="edgeLabel;html=1;align=center;verticalAlign=middle;resizable=0;points=[];" parent="SeQQwZ_gMkMX03fLQ0as-17" vertex="1" connectable="0">
                    <mxGeometry x="-0.3495" y="-2" relative="1" as="geometry">
                        <mxPoint y="-1" as="offset"/>
                    </mxGeometry>
                </mxCell>
            </root>
        </mxGraphModel>
    </diagram>
</mxfile>